HIERARCHY
ROOT hip
{
	OFFSET 0.000000 103.560692 0.219151
	CHANNELS 6 Xposition Yposition Zposition Zrotation Xrotation Yrotation
	JOINT pelvis
	{
		OFFSET 0.000000 1.955040 1.591925
		CHANNELS 3 Zrotation Xrotation Yrotation
		JOINT lThigh
		{
			OFFSET 8.341582 -7.629402 -0.646910
			CHANNELS 3 Zrotation Xrotation Yrotation
			JOINT lShin
			{
				OFFSET 2.185763 -45.093132 -0.705710
				CHANNELS 3 Zrotation Xrotation Yrotation
				JOINT lFoot
				{
					OFFSET 0.730976 -46.379768 -2.264282
					CHANNELS 3 Zrotation Xrotation Yrotation
					JOINT lToe
					{
						OFFSET 2.797621 -4.200020 10.742415
						CHANNELS 3 Zrotation Xrotation Yrotation
						JOINT lBigToe
						{
							OFFSET -2.433708 -0.269072 1.841711
							CHANNELS 3 Zrotation Xrotation Yrotation
							End Site
							{
								OFFSET -10.527346 -33.657166 -1.340707
							}
						}
					}
				}
			}
		}
		JOINT rThigh
		{
			OFFSET -8.341582 -7.629402 -0.646910
			CHANNELS 3 Zrotation Xrotation Yrotation
			JOINT rShin
			{
				OFFSET -2.185763 -45.093132 -0.705710
				CHANNELS 3 Zrotation Xrotation Yrotation
				JOINT rFoot
				{
					OFFSET -0.730976 -46.379768 -2.264282
					CHANNELS 3 Zrotation Xrotation Yrotation
					JOINT rToe
					{
						OFFSET -2.797621 -4.200019 10.742415
						CHANNELS 3 Zrotation Xrotation Yrotation
						JOINT rBigToe
						{
							OFFSET 2.433708 -0.269072 1.841711
							CHANNELS 3 Zrotation Xrotation Yrotation
							End Site
							{
								OFFSET 0.000000 24.298409 -0.425647
							}
						}
					}
				}
			}
		}
	}
	JOINT abdomen
	{
		OFFSET 0.000000 1.841293 -3.551421
		CHANNELS 3 Zrotation Xrotation Yrotation
		JOINT abdomen2
		{
			OFFSET 0.000000 5.439911 3.419600
			CHANNELS 3 Zrotation Xrotation Yrotation
			JOINT chest
			{
				OFFSET 0.000000 14.715073 -2.918270
				CHANNELS 3 Zrotation Xrotation Yrotation
				JOINT neck
				{
					OFFSET 0.000000 26.294655 -1.248052
					CHANNELS 3 Zrotation Xrotation Yrotation
					JOINT head
					{
						OFFSET 0.000000 8.807068 1.063695
						CHANNELS 3 Zrotation Xrotation Yrotation
						JOINT rEye
						{
							OFFSET -3.030866 6.632080 7.702687
							CHANNELS 3 Zrotation Xrotation Yrotation
							End Site
							{
								OFFSET 2.969555 -11.022598 8.626689
							}
						}
						JOINT lEye
						{
							OFFSET 3.030866 6.632080 7.702687
							CHANNELS 3 Zrotation Xrotation Yrotation
							End Site
							{
								OFFSET 0.000000 -15.881760 10.104412
							}
						}
						JOINT upperJaw
						{
							OFFSET 0.000000 1.922699 2.891887
							CHANNELS 3 Zrotation Xrotation Yrotation
							End Site
							{
								OFFSET 0.000000 -19.386169 10.230839
							}
						}
						JOINT lowerJaw
						{
							OFFSET 0.000000 1.857620 2.686640
							CHANNELS 3 Zrotation Xrotation Yrotation
							JOINT tongueBase
							{
								OFFSET 0.000000 -3.019135 2.746916
								CHANNELS 3 Zrotation Xrotation Yrotation
								JOINT tongue01
								{
									OFFSET 0.000000 0.664124 0.223355
									CHANNELS 3 Zrotation Xrotation Yrotation
									JOINT tongue02
									{
										OFFSET 0.000000 0.339737 0.715627
										CHANNELS 3 Zrotation Xrotation Yrotation
										JOINT tongue03
										{
											OFFSET 0.000000 0.123444 0.730634
											CHANNELS 3 Zrotation Xrotation Yrotation
											JOINT tongue04
											{
												OFFSET 0.000000 0.017212 0.737415
												CHANNELS 3 Zrotation Xrotation Yrotation
												JOINT tongue05
												{
													OFFSET 0.000000 -0.021011 0.632440
													CHANNELS 3 Zrotation Xrotation Yrotation
													JOINT tongueTip
													{
														OFFSET 0.000000 -0.014404 0.601796
														CHANNELS 3 Zrotation Xrotation Yrotation
														End Site
														{
															OFFSET -14.139406 -2.625778 0.472826
														}
													}
												}
											}
										}
									}
								}
							}
						}
					}
				}
				JOINT rCollar
				{
					OFFSET -2.109295 21.452370 3.768136
					CHANNELS 3 Zrotation Xrotation Yrotation
					JOINT rShldr
					{
						OFFSET -11.491621 -2.568573 -4.940255
						CHANNELS 3 Zrotation Xrotation Yrotation
						JOINT rForeArm
						{
							OFFSET -28.789030 -0.213806 2.098380
							CHANNELS 3 Zrotation Xrotation Yrotation
							JOINT rHand
							{
								OFFSET -22.260895 -0.869583 10.391586
								CHANNELS 3 Zrotation Xrotation Yrotation
								JOINT rThumb1
								{
									OFFSET -0.628075 0.137405 2.362409
									CHANNELS 3 Zrotation Xrotation Yrotation
									JOINT rThumb2
									{
										OFFSET 0.085205 -0.600235 3.826079
										CHANNELS 3 Zrotation Xrotation Yrotation
										JOINT rThumb3
										{
											OFFSET -1.255478 -0.879211 2.439162
											CHANNELS 3 Zrotation Xrotation Yrotation
											End Site
											{
												OFFSET -2.963715 0.538574 4.059553
											}
										}
									}
								}
								JOINT rCarpal1
								{
									OFFSET -0.855530 1.026047 1.621985
									CHANNELS 3 Zrotation Xrotation Yrotation
									JOINT rIndex1
									{
										OFFSET -3.951324 0.390884 3.873290
										CHANNELS 3 Zrotation Xrotation Yrotation
										JOINT rIndex2
										{
											OFFSET -3.071884 -1.259598 2.506104
											CHANNELS 3 Zrotation Xrotation Yrotation
											JOINT rIndex3
											{
												OFFSET -1.394112 -1.446640 1.203302
												CHANNELS 3 Zrotation Xrotation Yrotation
												End Site
												{
													OFFSET -3.392448 -1.258026 0.533405
												}
											}
										}
									}
									JOINT rMid1
									{
										OFFSET -5.422974 0.107910 2.002650
										CHANNELS 3 Zrotation Xrotation Yrotation
										JOINT rMid2
										{
											OFFSET -3.599533 -1.323776 2.090647
											CHANNELS 3 Zrotation Xrotation Yrotation
											JOINT rMid3
											{
												OFFSET -1.360191 -1.598495 1.068055
												CHANNELS 3 Zrotation Xrotation Yrotation
												End Site
												{
													OFFSET -4.087769 -0.460876 0.069540
												}
											}
										}
									}
								}
								JOINT rCarpal2
								{
									OFFSET -1.942749 0.556229 -0.337217
									CHANNELS 3 Zrotation Xrotation Yrotation
									JOINT rRing1
									{
										OFFSET -4.762787 -0.121170 2.349089
										CHANNELS 3 Zrotation Xrotation Yrotation
										JOINT rRing2
										{
											OFFSET -3.380348 -1.337097 1.356700
											CHANNELS 3 Zrotation Xrotation Yrotation
											JOINT rRing3
											{
												OFFSET -1.430290 -1.499649 0.914224
												CHANNELS 3 Zrotation Xrotation Yrotation
												End Site
												{
													OFFSET -1.783272 -2.215851 -0.391895
												}
											}
										}
									}
									JOINT rPinky1
									{
										OFFSET -5.232559 -1.313721 0.336493
										CHANNELS 3 Zrotation Xrotation Yrotation
										JOINT rPinky2
										{
											OFFSET -2.217606 -1.389603 0.800693
											CHANNELS 3 Zrotation Xrotation Yrotation
											JOINT rPinky3
											{
												OFFSET -0.886887 -1.462280 0.774199
												CHANNELS 3 Zrotation Xrotation Yrotation
												End Site
												{
													OFFSET 14.139406 -2.625778 0.472826
												}
											}
										}
									}
								}
							}
						}
					}
				}
				JOINT lCollar
				{
					OFFSET 2.109295 21.452370 3.768136
					CHANNELS 3 Zrotation Xrotation Yrotation
					JOINT lShldr
					{
						OFFSET 11.491621 -2.568573 -4.940255
						CHANNELS 3 Zrotation Xrotation Yrotation
						JOINT lForeArm
						{
							OFFSET 28.789030 -0.213806 2.098380
							CHANNELS 3 Zrotation Xrotation Yrotation
							JOINT lHand
							{
								OFFSET 22.260895 -0.869583 10.391586
								CHANNELS 3 Zrotation Xrotation Yrotation
								JOINT lThumb1
								{
									OFFSET 0.628075 0.137405 2.362409
									CHANNELS 3 Zrotation Xrotation Yrotation
									JOINT lThumb2
									{
										OFFSET -0.085205 -0.600235 3.826079
										CHANNELS 3 Zrotation Xrotation Yrotation
										JOINT lThumb3
										{
											OFFSET 1.255478 -0.879211 2.439162
											CHANNELS 3 Zrotation Xrotation Yrotation
											End Site
											{
												OFFSET 2.963715 0.538574 4.059553
											}
										}
									}
								}
								JOINT lCarpal1
								{
									OFFSET 0.855530 1.026047 1.621985
									CHANNELS 3 Zrotation Xrotation Yrotation
									JOINT lIndex1
									{
										OFFSET 3.951324 0.390884 3.873290
										CHANNELS 3 Zrotation Xrotation Yrotation
										JOINT lIndex2
										{
											OFFSET 3.071884 -1.259598 2.506104
											CHANNELS 3 Zrotation Xrotation Yrotation
											JOINT lIndex3
											{
												OFFSET 1.394112 -1.446640 1.203302
												CHANNELS 3 Zrotation Xrotation Yrotation
												End Site
												{
													OFFSET 3.392448 -1.258026 0.533405
												}
											}
										}
									}
									JOINT lMid1
									{
										OFFSET 5.422974 0.107910 2.002650
										CHANNELS 3 Zrotation Xrotation Yrotation
										JOINT lMid2
										{
											OFFSET 3.599533 -1.323776 2.090647
											CHANNELS 3 Zrotation Xrotation Yrotation
											JOINT lMid3
											{
												OFFSET 1.360191 -1.598495 1.068055
												CHANNELS 3 Zrotation Xrotation Yrotation
												End Site
												{
													OFFSET 4.087769 -0.460876 0.069540
												}
											}
										}
									}
								}
								JOINT lCarpal2
								{
									OFFSET 1.942749 0.556229 -0.337217
									CHANNELS 3 Zrotation Xrotation Yrotation
									JOINT lRing1
									{
										OFFSET 4.762787 -0.121170 2.349089
										CHANNELS 3 Zrotation Xrotation Yrotation
										JOINT lRing2
										{
											OFFSET 3.380348 -1.337097 1.356700
											CHANNELS 3 Zrotation Xrotation Yrotation
											JOINT lRing3
											{
												OFFSET 1.430290 -1.499649 0.914224
												CHANNELS 3 Zrotation Xrotation Yrotation
												End Site
												{
													OFFSET 1.783272 -2.215851 -0.391895
												}
											}
										}
									}
									JOINT lPinky1
									{
										OFFSET 5.232559 -1.313721 0.336493
										CHANNELS 3 Zrotation Xrotation Yrotation
										JOINT lPinky2
										{
											OFFSET 2.217606 -1.389603 0.800693
											CHANNELS 3 Zrotation Xrotation Yrotation
											JOINT lPinky3
											{
												OFFSET 0.886887 -1.462280 0.774199
												CHANNELS 3 Zrotation Xrotation Yrotation
												End Site
												{
													OFFSET -10.295957 -17.050110 17.461308
												}
											}
										}
									}
								}
							}
						}
					}
				}
				JOINT rPectoral
				{
					OFFSET -6.358840 6.360771 6.369920
					CHANNELS 3 Zrotation Xrotation Yrotation
					End Site
					{
						OFFSET 10.295957 -17.050110 17.461308
					}
				}
				JOINT lPectoral
				{
					OFFSET 6.358840 6.360771 6.369920
					CHANNELS 3 Zrotation Xrotation Yrotation
					End Site
					{
						OFFSET 10.295957 -17.050110 17.461308
					}
				}
			}
		}
	}
}
MOTION
Frames:	5
Frame Time:	0.0333333
50.749100 -1.051201 -163.959000 -2.822959 4.431093 -174.708420 0.000000 0.000000 0.000000 -15.023812 -2.715899 -6.998379 0.734773 26.089741 0.436139 5.313407 -20.862461 10.674731 0.000000 0.000000 0.000000 0.000000 0.000000 0.000000 -9.425826 -28.223015 -8.137296 6.927848 80.295387 -8.723371 -0.254703 7.743620 -4.670551 0.000000 0.000000 0.000000 0.000000 0.000000 0.000000 0.000000 0.000000 0.000000 -1.614730 -3.585940 3.765909 -2.443560 -4.848990 0.592081 -9.122527 15.057197 -3.978400 10.337897 -12.187799 -8.012980 0.000000 0.000000 0.000000 0.000000 0.000000 0.000000 0.000000 0.000000 0.000000 0.000000 0.000000 0.000000 0.000000 0.000000 0.000000 0.000000 0.000000 0.000000 0.000000 0.000000 0.000000 0.000000 0.000000 0.000000 0.000000 0.000000 0.000000 0.000000 0.000000 0.000000 0.000000 0.000000 0.000000 1.005026 -4.457774 26.158192 70.459885 -6.909902 -27.527773 -6.011330 3.715258 31.643263 0.000000 0.000000 0.000000 -3.683647 7.568618 -37.263580 -0.521451 -4.065397 4.748854 0.000000 0.000000 0.000000 0.000000 0.000000 0.000000 2.932509 3.077809 -1.696276 -16.520334 -9.538442 -4.612900 0.000000 0.000000 0.000000 -3.674220 -0.286563 -4.611559 -18.025385 -7.769807 -5.343670 0.000000 0.000000 0.000000 0.456332 10.453167 1.482051 -2.143522 2.948137 -9.589356 -18.472721 -6.951544 -4.630789 0.000000 0.000000 0.000000 -15.680961 4.379838 -16.697607 -18.444633 -4.749706 -6.966295 0.000000 0.000000 0.000000 -1.005026 -4.457774 -26.158192 -67.110619 -17.419498 24.670382 5.549394 3.628221 -30.173061 0.000000 0.000000 0.000000 3.683647 7.568618 37.263580 0.521451 -4.065397 -4.748854 0.000000 0.000000 0.000000 0.000000 0.000000 0.000000 -2.932506 3.077815 1.696297 16.520334 -9.538442 4.612900 0.000000 0.000000 0.000000 3.674220 -0.286563 4.611559 18.025385 -7.769807 5.343670 0.000000 0.000000 0.000000 -1.341862 10.753031 -0.961422 2.143522 2.948137 9.589356 18.472721 -6.951544 4.630789 0.000000 0.000000 0.000000 15.680961 4.379838 16.697607 18.444633 -4.749706 6.966295 0.000000 0.000000 0.000000 -0.838774 0.020650 2.461073 0.838774 0.020650 -2.461073 
50.321602 -1.050598 -165.192001 -3.117913 4.542315 -173.912292 0.000000 0.000000 0.000000 -15.007195 -1.470810 -7.378080 0.740777 25.737677 0.336724 4.015359 -17.194818 10.519812 0.000000 0.000000 0.000000 0.000000 0.000000 0.000000 -8.156429 -31.092260 -5.689193 5.838682 78.833549 -7.517137 -1.670460 1.138430 -9.812651 0.000000 0.000000 0.000000 0.000000 0.000000 0.000000 0.000000 0.000000 0.000000 -1.601200 -3.346359 1.364200 -1.827020 -4.896949 -0.014637 -7.351759 15.149997 -3.015389 6.995268 -12.566196 -6.483228 0.000000 0.000000 0.000000 0.000000 0.000000 0.000000 0.000000 0.000000 0.000000 0.000000 0.000000 0.000000 0.000000 0.000000 0.000000 0.000000 0.000000 0.000000 0.000000 0.000000 0.000000 0.000000 0.000000 0.000000 0.000000 0.000000 0.000000 0.000000 0.000000 0.000000 0.000000 0.000000 0.000000 1.005026 -4.457774 26.158192 70.295540 -7.268264 -27.552286 -6.074075 3.725651 31.838951 0.000000 0.000000 0.000000 -3.683647 7.568618 -37.263580 -0.521451 -4.065397 4.748854 0.000000 0.000000 0.000000 0.000000 0.000000 0.000000 2.932509 3.077809 -1.696276 -16.520334 -9.538442 -4.612900 0.000000 0.000000 0.000000 -3.674220 -0.286563 -4.611559 -18.025385 -7.769807 -5.343670 0.000000 0.000000 0.000000 0.399116 10.436606 1.481158 -2.143522 2.948137 -9.589356 -18.472721 -6.951544 -4.630789 0.000000 0.000000 0.000000 -15.680961 4.379838 -16.697607 -18.444633 -4.749706 -6.966295 0.000000 0.000000 0.000000 -1.005026 -4.457774 -26.158192 -67.470802 -17.453650 23.736841 5.537794 3.625795 -30.135416 0.000000 0.000000 0.000000 3.683647 7.568618 37.263580 0.521451 -4.065397 -4.748854 0.000000 0.000000 0.000000 0.000000 0.000000 0.000000 -2.932506 3.077815 1.696297 16.520334 -9.538442 4.612900 0.000000 0.000000 0.000000 3.674220 -0.286563 4.611559 18.025385 -7.769807 5.343670 0.000000 0.000000 0.000000 -1.348089 10.755953 -0.946979 2.143522 2.948137 9.589356 18.472721 -6.951544 4.630789 0.000000 0.000000 0.000000 15.680961 4.379838 16.697607 18.444633 -4.749706 6.966295 0.000000 0.000000 0.000000 -0.838774 0.020650 2.461073 0.838774 0.020650 -2.461073 
50.084999 -1.021599 -166.272995 -3.226716 4.699366 -173.151550 0.000000 0.000000 0.000000 -14.997899 -0.190650 -7.982690 0.751879 25.373129 0.220351 4.312013 -17.440100 10.519701 0.000000 0.000000 0.000000 0.000000 0.000000 0.000000 -5.597579 -32.891338 -2.107008 3.960751 75.162102 -5.489259 -2.249452 -4.330152 -10.119546 0.000000 0.000000 0.000000 0.000000 0.000000 0.000000 0.000000 0.000000 0.000000 -1.430530 -2.620660 -0.907465 -1.133230 -5.448628 -0.571105 -5.963259 14.852598 -2.341990 4.474709 -12.498199 -5.440800 0.000000 0.000000 0.000000 0.000000 0.000000 0.000000 0.000000 0.000000 0.000000 0.000000 0.000000 0.000000 0.000000 0.000000 0.000000 0.000000 0.000000 0.000000 0.000000 0.000000 0.000000 0.000000 0.000000 0.000000 0.000000 0.000000 0.000000 0.000000 0.000000 0.000000 0.000000 0.000000 0.000000 1.005026 -4.457774 26.158192 70.314629 -7.226677 -27.549389 -5.952582 3.705246 31.459036 0.000000 0.000000 0.000000 -3.683647 7.568618 -37.263580 -0.521451 -4.065397 4.748854 0.000000 0.000000 0.000000 0.000000 0.000000 0.000000 2.932509 3.077809 -1.696276 -16.520334 -9.538442 -4.612900 0.000000 0.000000 0.000000 -3.674220 -0.286563 -4.611559 -18.025385 -7.769807 -5.343670 0.000000 0.000000 0.000000 0.245412 10.392296 1.477550 -2.143522 2.948137 -9.589356 -18.472721 -6.951544 -4.630789 0.000000 0.000000 0.000000 -15.680961 4.379838 -16.697607 -18.444633 -4.749706 -6.966295 0.000000 0.000000 0.000000 -1.005026 -4.457774 -26.158192 -67.914894 -16.565430 23.374941 5.775095 3.673094 -30.898041 0.000000 0.000000 0.000000 3.683647 7.568618 37.263580 0.521451 -4.065397 -4.748854 0.000000 0.000000 0.000000 0.000000 0.000000 0.000000 -2.932506 3.077815 1.696297 16.520334 -9.538442 4.612900 0.000000 0.000000 0.000000 3.674220 -0.286563 4.611559 18.025385 -7.769807 5.343670 0.000000 0.000000 0.000000 -1.321247 10.743342 -1.009252 2.143522 2.948137 9.589356 18.472721 -6.951544 4.630789 0.000000 0.000000 0.000000 15.680961 4.379838 16.697607 18.444633 -4.749706 6.966295 0.000000 0.000000 0.000000 -0.838774 0.020650 2.461073 0.838774 0.020650 -2.461073 
49.855099 -1.037003 -167.223007 -3.223140 4.519847 -172.191559 0.000000 0.000000 0.000000 -14.996184 0.856176 -8.545001 0.771582 24.984665 0.129178 4.773689 -18.233097 10.545404 0.000000 0.000000 0.000000 0.000000 0.000000 0.000000 -2.849480 -33.954369 1.811471 2.339902 69.903366 -3.761657 -2.798352 -7.705164 -10.197911 0.000000 0.000000 0.000000 0.000000 0.000000 0.000000 0.000000 0.000000 0.000000 -1.069000 -2.445070 -3.082489 -0.349158 -5.532770 -1.090920 -4.470389 14.825895 -1.614050 1.864010 -12.773797 -4.323740 0.000000 0.000000 0.000000 0.000000 0.000000 0.000000 0.000000 0.000000 0.000000 0.000000 0.000000 0.000000 0.000000 0.000000 0.000000 0.000000 0.000000 0.000000 0.000000 0.000000 0.000000 0.000000 0.000000 0.000000 0.000000 0.000000 0.000000 0.000000 0.000000 0.000000 0.000000 0.000000 0.000000 1.005026 -4.457774 26.158192 69.815277 -8.311374 -27.629707 -5.865363 3.689803 31.184216 0.000000 0.000000 0.000000 -3.683647 7.568618 -37.263580 -0.521451 -4.065397 4.748854 0.000000 0.000000 0.000000 0.000000 0.000000 0.000000 2.932509 3.077809 -1.696276 -16.520334 -9.538442 -4.612900 0.000000 0.000000 0.000000 -3.674220 -0.286563 -4.611559 -18.025385 -7.769807 -5.343670 0.000000 0.000000 0.000000 0.339554 10.419405 1.479961 -2.143522 2.948137 -9.589356 -18.472721 -6.951544 -4.630789 0.000000 0.000000 0.000000 -15.680961 4.379838 -16.697607 -18.444633 -4.749706 -6.966295 0.000000 0.000000 0.000000 -1.005026 -4.457774 -26.158192 -68.357323 -16.123201 22.585287 5.832406 3.683766 -31.080099 0.000000 0.000000 0.000000 3.683647 7.568618 37.263580 0.521451 -4.065397 -4.748854 0.000000 0.000000 0.000000 0.000000 0.000000 0.000000 -2.932506 3.077815 1.696297 16.520334 -9.538442 4.612900 0.000000 0.000000 0.000000 3.674220 -0.286563 4.611559 18.025385 -7.769807 5.343670 0.000000 0.000000 0.000000 -1.310450 10.738259 -1.034309 2.143522 2.948137 9.589356 18.472721 -6.951544 4.630789 0.000000 0.000000 0.000000 15.680961 4.379838 16.697607 18.444633 -4.749706 6.966295 0.000000 0.000000 0.000000 -0.838774 0.020650 2.461073 0.838774 0.020650 -2.461073 
49.519402 -0.956902 -168.253998 -3.881757 4.441147 -171.187729 0.000000 0.000000 0.000000 -15.011392 2.575012 -8.257533 0.805393 23.378736 0.064748 4.633883 -17.724562 10.523658 0.000000 0.000000 0.000000 0.000000 0.000000 0.000000 -0.991067 -33.733067 6.240407 1.045374 63.244179 -2.437778 -2.872984 -8.856269 -10.249040 0.000000 0.000000 0.000000 0.000000 0.000000 0.000000 0.000000 0.000000 0.000000 -1.663119 -1.887879 -4.784328 0.478913 -5.540810 -1.476770 -3.539639 14.566497 -1.054600 0.362813 -12.906499 -3.369199 0.000000 0.000000 0.000000 0.000000 0.000000 0.000000 0.000000 0.000000 0.000000 0.000000 0.000000 0.000000 0.000000 0.000000 0.000000 0.000000 0.000000 0.000000 0.000000 0.000000 0.000000 0.000000 0.000000 0.000000 0.000000 0.000000 0.000000 0.000000 0.000000 0.000000 0.000000 0.000000 0.000000 1.005026 -4.457774 26.158192 69.176514 -9.688274 -27.745914 -5.849513 3.686902 31.134243 0.000000 0.000000 0.000000 -3.683647 7.568618 -37.263580 -0.521451 -4.065397 4.748854 0.000000 0.000000 0.000000 0.000000 0.000000 0.000000 2.932509 3.077809 -1.696276 -16.520334 -9.538442 -4.612900 0.000000 0.000000 0.000000 -3.674220 -0.286563 -4.611559 -18.025385 -7.769807 -5.343670 0.000000 0.000000 0.000000 0.325115 10.415241 1.479638 -2.143522 2.948137 -9.589356 -18.472721 -6.951544 -4.630789 0.000000 0.000000 0.000000 -15.680961 4.379838 -16.697607 -18.444633 -4.749706 -6.966295 0.000000 0.000000 0.000000 -1.005026 -4.457774 -26.158192 -68.917343 -15.444572 21.631285 5.851351 3.687200 -31.140312 0.000000 0.000000 0.000000 3.683647 7.568618 37.263580 0.521451 -4.065397 -4.748854 0.000000 0.000000 0.000000 0.000000 0.000000 0.000000 -2.932506 3.077815 1.696297 16.520334 -9.538442 4.612900 0.000000 0.000000 0.000000 3.674220 -0.286563 4.611559 18.025385 -7.769807 5.343670 0.000000 0.000000 0.000000 -1.297608 10.732206 -1.064118 2.143522 2.948137 9.589356 18.472721 -6.951544 4.630789 0.000000 0.000000 0.000000 15.680961 4.379838 16.697607 18.444633 -4.749706 6.966295 0.000000 0.000000 0.000000 -0.838774 0.020650 2.461073 0.838774 0.020650 -2.461073 
